Coordinates
nRows=370
nColumns=2
inDegrees=yes
endheader
time	ankle_angle_r	
3.16008	  9.643555	
3.19334	  9.613037	
3.22661	  9.689331	
3.25987	  9.567261	
3.29314	  9.567261	
3.3264	  9.689331	
3.35966	  9.613037	
3.39293	  9.582520	
3.42619	  9.689331	
3.45946	  9.613037	
3.49272	  9.628296	
3.52598	  9.643555	
3.55925	  9.552002	
3.59251	  9.613037	
3.62578	  9.689331	
3.65904	  9.536743	
3.6923	  9.597778	
3.72557	  9.674072	
3.75883	  9.597778	
3.7921	  9.628296	
3.82536	  9.689331	
3.85862	  9.567261	
3.89189	  9.597778	
3.92515	  9.628296	
3.95842	  9.567261	
3.99168	  9.582520	
4.02494	  9.674072	
4.05821	  9.689331	
4.09147	  9.643555	
4.12474	  9.750366	
4.158	  9.689331	
4.19126	  9.643555	
4.22453	  9.765625	
4.25779	  9.689331	
4.29106	  9.658813	
4.32432	  9.735107	
4.35758	  9.704590	
4.39085	  9.689331	
4.42411	  9.796143	
4.45738	  9.719849	
4.49064	  9.689331	
4.5239	  9.735107	
4.55717	  9.750366	
4.59043	  9.689331	
4.6237	  9.750366	
4.65696	  9.704590	
4.69022	  9.689331	
4.72349	  9.765625	
4.75675	  9.719849	
4.79002	  9.689331	
4.82328	  9.765625	
4.85654	  9.735107	
4.88981	  9.735107	
4.92307	  9.704590	
4.95634	  9.674072	
4.9896	  9.689331	
5.02286	  9.750366	
5.05613	  9.674072	
5.08939	  9.689331	
5.12266	  9.719849	
5.15592	  9.643555	
5.18918	  9.689331	
5.22245	  9.658813	
5.25571	  9.658813	
5.28898	  9.719849	
5.32224	  9.613037	
5.3555	  9.613037	
5.38877	  9.628296	
5.42203	  9.689331	
5.4553	  9.597778	
5.48856	  9.704590	
5.52182	  9.735107	
5.55509	  9.704590	
5.58835	  9.780884	
5.62162	  9.719849	
5.65488	  9.658813	
5.68814	  9.796143	
5.72141	  9.796143	
5.75467	  9.719849	
5.78794	  9.796143	
5.8212	  9.811401	
5.85446	  9.735107	
5.88773	  9.796143	
5.92099	  9.811401	
5.95426	  9.750366	
5.98752	  9.841919	
6.02078	  9.780884	
6.05405	  9.765625	
6.08731	  9.796143	
6.12058	  9.841919	
6.15384	  9.765625	
6.1871	  9.811401	
6.22037	  9.796143	
6.25363	  9.750366	
6.2869	  9.826660	
6.32016	  9.826660	
6.35342	  9.765625	
6.38669	  9.765625	
6.41995	  9.780884	
6.45322	  9.704590	
6.48648	  9.780884	
6.51974	  9.765625	
6.55301	  9.689331	
6.58627	  9.719849	
6.61954	  9.735107	
6.6528	  9.689331	
6.68606	  9.719849	
6.71933	  9.765625	
6.75259	  9.658813	
6.78586	  9.689331	
6.81912	  9.735107	
6.85238	  9.597778	
6.88565	  9.735107	
6.91891	  9.674072	
6.95218	  9.658813	
6.98544	  9.689331	
7.0187	  9.704590	
7.05197	  9.674072	
7.08523	  9.628296	
7.1185	  9.719849	
7.15176	  9.613037	
7.18502	  9.689331	
7.21829	  9.658813	
7.25155	  9.674072	
7.28482	  9.689331	
7.31808	  9.643555	
7.35134	  9.658813	
7.38461	  9.735107	
7.41787	  9.719849	
7.45114	  9.674072	
7.4844	  9.750366	
7.51766	  9.689331	
7.55093	  9.643555	
7.58419	  9.735107	
7.61746	  9.643555	
7.65072	  9.658813	
7.68398	  9.689331	
7.71725	  9.597778	
7.75051	  9.628296	
7.78378	  9.719849	
7.81704	  9.567261	
7.8503	  9.613037	
7.88357	  9.750366	
7.91683	  9.719849	
7.9501	  9.704590	
7.98336	  9.719849	
8.01662	  9.719849	
8.04989	  9.689331	
8.08315	  9.765625	
8.11642	  9.689331	
8.14968	  9.689331	
8.18294	  9.735107	
8.21621	  9.735107	
8.24947	  9.704590	
8.28274	  9.750366	
8.316	  9.719849	
8.34926	  9.719849	
8.38253	  9.765625	
8.41579	  9.704590	
8.44906	  9.704590	
8.48232	  9.735107	
8.51558	  9.689331	
8.54885	  9.689331	
8.58211	  9.765625	
8.61538	  9.704590	
8.64864	  9.719849	
8.6819	  9.689331	
8.71517	  9.628296	
8.74843	  9.689331	
8.7817	  9.658813	
8.81496	  9.643555	
8.84822	  9.597778	
8.88149	  9.674072	
8.91475	  9.628296	
8.94802	  9.597778	
8.98128	  9.674072	
9.01454	  9.658813	
9.04781	  9.613037	
9.08107	  9.689331	
9.11434	  9.704590	
9.1476	  9.689331	
9.18086	  9.613037	
9.21413	  9.613037	
9.24739	  9.552002	
9.28066	  9.597778	
9.31392	  9.567261	
9.34718	  9.582520	
9.38045	  9.643555	
9.41371	  9.597778	
9.44698	  9.552002	
9.48024	  9.658813	
9.5135	  9.613037	
9.54677	  9.613037	
9.58003	  9.689331	
9.6133	  9.613037	
9.64656	  9.658813	
9.67982	  9.643555	
9.71309	  9.582520	
9.74635	  9.643555	
9.77962	  9.674072	
9.81288	  9.597778	
9.84614	  9.628296	
9.87941	  9.719849	
9.91267	  9.658813	
9.94594	  9.674072	
9.9792	  9.750366	
10.0125	  9.658813	
10.0457	  9.643555	
10.079	  9.689331	
10.1123	  9.689331	
10.1455	  9.689331	
10.1788	  9.658813	
10.212	  9.597778	
10.2453	  9.689331	
10.2786	  9.704590	
10.3118	  9.628296	
10.3451	  9.704590	
10.3784	  9.643555	
10.4116	  9.628296	
10.4449	  9.750366	
10.4782	  9.735107	
10.5114	  9.628296	
10.5447	  9.689331	
10.578	  9.704590	
10.6112	  9.719849	
10.6445	  9.796143	
10.6777	  9.689331	
10.711	  9.643555	
10.7443	  9.796143	
10.7775	  9.704590	
10.8108	  9.704590	
10.8441	  9.750366	
10.8773	  9.674072	
10.9106	  9.613037	
10.9439	  9.750366	
10.9771	  9.750366	
11.0104	  9.658813	
11.0436	  9.750366	
11.0769	  9.689331	
11.1102	  9.674072	
11.1434	  9.704590	
11.1767	  9.719849	
11.21	  9.674072	
11.2432	  9.750366	
11.2765	  9.689331	
11.3098	  9.613037	
11.343	  9.719849	
11.3763	  9.735107	
11.4096	  9.628296	
11.4428	  9.750366	
11.4761	  9.750366	
11.5093	  9.689331	
11.5426	  9.750366	
11.5759	  9.796143	
11.6091	  9.628296	
11.6424	  9.674072	
11.6757	  9.750366	
11.7089	  9.674072	
11.7422	  9.704590	
11.7755	  9.750366	
11.8087	  9.658813	
11.842	  9.704590	
11.8752	  9.750366	
11.9085	  9.643555	
11.9418	  9.735107	
11.975	  9.765625	
12.0083	  9.643555	
12.0416	  9.658813	
12.0748	  9.689331	
12.1081	  9.704590	
12.1414	  9.674072	
12.1746	  9.674072	
12.2079	  9.689331	
12.2412	  9.765625	
12.2744	  9.735107	
12.3077	  9.689331	
12.3409	  9.674072	
12.3742	  9.704590	
12.4075	  9.597778	
12.4407	  9.658813	
12.474	  9.628296	
12.5073	  9.597778	
12.5405	  9.658813	
12.5738	  9.704590	
12.6071	  9.567261	
12.6403	  9.704590	
12.6736	  9.689331	
12.7068	  9.597778	
12.7401	  9.689331	
12.7734	  9.597778	
12.8066	  9.643555	
12.8399	  9.658813	
12.8732	  9.582520	
12.9064	  9.628296	
12.9397	  9.658813	
12.973	  9.704590	
13.0062	  9.628296	
13.0395	  9.765625	
13.0728	  9.674072	
13.106	  9.689331	
13.1393	  9.765625	
13.1725	  9.658813	
13.2058	  9.704590	
13.2391	  9.765625	
13.2723	  9.674072	
13.3056	  9.719849	
13.3389	  9.780884	
13.3721	  9.658813	
13.4054	  9.719849	
13.4387	  9.765625	
13.4719	  9.674072	
13.5052	  9.719849	
13.5384	  9.765625	
13.5717	  9.689331	
13.605	  9.674072	
13.6382	  9.780884	
13.6715	  9.719849	
13.7048	  9.704590	
13.738	  9.735107	
13.7713	  9.735107	
13.8046	  9.674072	
13.8378	  9.750366	
13.8711	  9.658813	
13.9044	  9.613037	
13.9376	  9.719849	
13.9709	  9.643555	
14.0041	  9.582520	
14.0374	  9.658813	
14.0707	  9.597778	
14.1039	  9.582520	
14.1372	  9.674072	
14.1705	  9.597778	
14.2037	  9.613037	
14.237	  9.674072	
14.2703	  9.628296	
14.3035	  9.582520	
14.3368	  9.643555	
14.37	  9.567261	
14.4033	  9.567261	
14.4366	  9.613037	
14.4698	  9.674072	
14.5031	  9.689331	
14.5364	  9.796143	
14.5696	  9.719849	
14.6029	  9.719849	
14.6362	  9.750366	
14.6694	  9.750366	
14.7027	  9.704590	
14.736	  9.765625	
14.7692	  9.735107	
14.8025	  9.765625	
14.8357	  9.735107	
14.869	  9.719849	
14.9023	  9.796143	
14.9355	  9.765625	
14.9688	  9.765625	
15.0021	  9.765625	
15.0353	  9.750366	
15.0686	  9.735107	
15.1019	  9.796143	
15.1351	  9.796143	
15.1684	  9.765625	
15.2016	  9.796143	
15.2349	  9.765625	
15.2682	  9.735107	
15.3014	  9.780884	
15.3347	  9.719849	
15.368	  9.704590	
15.4012	  9.796143	
15.4345	  9.796143	
